<?xml version="1.0" standalone="no"?>
<!DOCTYPE svg PUBLIC "-//W3C//DTD SVG 20010904//EN"
 "http://www.w3.org/TR/2001/REC-SVG-20010904/DTD/svg10.dtd">
<svg version="1.0" xmlns="http://www.w3.org/2000/svg"
 width="500.000000pt" height="500.000000pt" viewBox="0 0 500.000000 500.000000"
 preserveAspectRatio="xMidYMid meet">
<metadata>
Created by potrace 1.14, written by Peter Selinger 2001-2017
</metadata>
<g transform="translate(0.000000,500.000000) scale(0.100000,-0.100000)"
fill="#000000" stroke="none">
<path d="M0 2500 l0 -2500 2500 0 2500 0 0 2500 0 2500 -2500 0 -2500 0 0
-2500z m2042 2226 c40 -8 91 -21 113 -29 l40 -14 -75 -12 c-248 -40 -411 -126
-466 -246 -31 -66 -33 -170 -3 -258 21 -62 82 -181 98 -191 5 -3 28 24 51 59
77 119 189 199 322 230 114 27 117 21 26 -47 -98 -75 -208 -199 -269 -305 -52
-91 -106 -243 -116 -321 -5 -47 -8 -52 -19 -38 -21 30 -37 144 -31 231 l6 82
-43 20 c-56 28 -151 115 -183 170 -156 267 -1 600 311 668 81 18 149 18 238 1z
m958 -122 c221 -44 412 -144 541 -282 76 -81 121 -154 157 -254 25 -68 27 -84
26 -228 0 -109 -5 -168 -15 -200 l-15 -45 -7 95 c-8 120 -27 194 -77 295 -93
190 -268 328 -470 371 -108 23 -269 14 -375 -20 -205 -65 -428 -262 -534 -468
-46 -89 -47 -89 -27 14 44 230 183 436 381 565 39 26 75 51 80 56 15 14 -244
1 -342 -18 -70 -13 -128 -30 -208 -61 -43 -16 35 37 112 76 100 52 235 95 343
109 47 6 99 13 115 15 53 7 238 -4 315 -20z m430 -658 l55 -14 -50 -1 c-27 -1
-89 -10 -136 -20 -160 -36 -270 -93 -382 -200 -81 -77 -116 -128 -200 -288
-104 -197 -178 -304 -287 -413 -75 -76 -111 -103 -171 -132 -104 -51 -200 -66
-272 -43 -74 23 -167 75 -190 107 -30 40 -34 116 -8 165 37 73 135 134 215
133 l31 -1 -30 -16 c-110 -59 -161 -146 -124 -215 15 -28 70 -48 134 -48 188
0 374 184 584 579 76 143 144 236 209 288 84 68 208 121 317 137 54 8 249 -4
305 -18z m93 -305 c0 -180 -18 -267 -80 -386 -34 -66 -37 -76 -39 -171 -2
-110 -9 -154 -30 -195 l-13 -26 77 -7 c111 -10 158 -22 238 -62 121 -60 238
-194 264 -303 19 -82 9 -222 -22 -299 -40 -97 -87 -168 -166 -251 l-73 -76 36
58 c112 181 153 366 111 509 -30 104 -119 193 -233 235 -90 32 -228 42 -304
20 -134 -39 -209 -166 -209 -353 l0 -81 -48 -31 c-27 -17 -67 -51 -90 -76 -71
-77 -66 -147 17 -238 l47 -52 54 27 c40 20 69 27 111 27 56 0 183 -32 193 -49
3 -5 -21 -11 -54 -14 -119 -10 -230 -89 -284 -200 -57 -117 -85 -308 -71 -491
8 -106 14 -113 73 -82 43 22 71 59 202 256 67 102 126 189 131 194 27 30 -52
-279 -94 -369 -62 -130 -133 -185 -240 -185 -62 0 -155 31 -233 76 -48 28
-160 131 -152 139 3 3 49 -15 104 -40 54 -24 105 -45 112 -45 32 0 -21 180
-77 267 -68 105 -155 152 -298 160 -108 7 -109 14 -9 65 102 52 256 48 343 -9
13 -9 25 -14 27 -12 2 2 18 40 35 84 17 44 49 104 72 134 22 29 39 54 37 55
-2 2 -19 9 -38 17 -19 7 -53 32 -75 54 -98 97 -83 253 33 356 l47 41 0 96 c1
54 5 112 9 131 8 31 7 34 -10 27 -10 -4 -61 -12 -112 -18 -85 -9 -205 -2 -278
18 -28 7 -34 -13 -41 -148 -8 -154 22 -310 82 -429 l18 -34 -22 20 c-62 54
-143 212 -176 340 -25 97 -26 284 -2 387 l18 78 39 -20 c199 -101 504 -48 683
120 89 83 112 137 102 241 -7 87 -1 105 49 155 35 35 84 129 116 224 27 81 70
265 70 305 1 27 2 28 12 11 7 -12 11 -78 11 -175z m-530 -321 c32 0 73 7 92
14 19 8 35 13 35 11 0 -18 -27 -55 -56 -74 -28 -20 -43 -23 -86 -19 -44 5 -57
11 -85 42 -43 46 -42 57 5 40 20 -7 63 -13 95 -14z m-917 -827 c9 -64 -3 -110
-42 -153 -50 -55 -98 -67 -289 -73 -238 -7 -364 -42 -433 -121 -42 -48 -55
-104 -49 -201 21 -318 319 -718 812 -1090 155 -117 371 -259 507 -334 l78 -42
101 52 c379 194 700 515 914 912 26 48 48 87 50 87 7 0 -18 -77 -57 -177 -141
-367 -374 -675 -703 -931 -227 -177 -321 -195 -516 -96 -501 251 -986 678
-1232 1085 -206 341 -221 671 -39 842 127 118 281 148 630 123 107 -8 127 -7
160 8 70 31 89 106 57 212 -8 27 -14 51 -14 54 2 17 60 -122 65 -157z m3 -716
c116 -79 228 -210 300 -354 25 -50 81 -217 81 -241 0 -3 -25 35 -56 84 -114
181 -240 343 -400 513 l-89 95 60 -34 c33 -18 80 -47 104 -63z"/>
</g>
</svg>
