<?xml version="1.0" standalone="no"?>
<!DOCTYPE svg PUBLIC "-//W3C//DTD SVG 20010904//EN"
 "http://www.w3.org/TR/2001/REC-SVG-20010904/DTD/svg10.dtd">
<svg version="1.0" xmlns="http://www.w3.org/2000/svg"
 width="1024.000000pt" height="1024.000000pt" viewBox="0 0 1024.000000 1024.000000"
 preserveAspectRatio="xMidYMid meet">
<metadata>
Created by potrace 1.14, written by Peter Selinger 2001-2017
</metadata>
<g transform="translate(0.000000,1024.000000) scale(0.100000,-0.100000)"
fill="#000000" stroke="none">
<path d="M2470 7388 c-161 -56 -269 -171 -270 -284 l0 -41 -64 -6 c-167 -16
-322 -140 -385 -311 -26 -71 -32 -213 -10 -227 27 -17 34 -2 40 82 7 92 22
143 62 211 31 54 101 119 156 147 52 27 164 53 211 50 53 -4 58 3 53 73 -4 57
-2 67 26 110 59 93 185 160 301 162 96 1 162 -39 205 -123 16 -31 17 -83 4
-156 -3 -16 1 -20 21 -20 38 0 56 60 42 145 -13 75 -12 76 67 85 196 22 363
-123 378 -329 l6 -74 57 -11 c44 -9 69 -21 103 -51 57 -51 79 -103 76 -187 -2
-45 2 -67 11 -73 57 -35 68 115 16 218 -32 63 -95 118 -162 139 l-51 16 -6 63
c-14 151 -125 284 -273 329 -62 19 -167 19 -227 1 -43 -13 -47 -12 -64 6 -67
75 -203 98 -323 56z"/>
<path d="M1753 6496 c-90 -29 -167 -98 -208 -188 -25 -55 -24 -78 6 -78 14 0
26 14 39 44 10 25 36 63 56 86 109 120 280 126 413 14 l32 -26 58 26 c106 47
217 26 281 -53 17 -20 39 -47 50 -61 19 -24 20 -24 35 -6 12 16 12 22 -2 50
-64 128 -228 189 -364 136 -45 -18 -54 -19 -68 -6 -9 8 -38 27 -66 42 -42 23
-64 28 -135 31 -53 2 -101 -2 -127 -11z"/>
<path d="M2860 6435 c-130 -30 -229 -98 -303 -207 -50 -74 -56 -101 -22 -106
15 -1 28 11 50 49 89 152 281 242 447 211 87 -16 180 -65 247 -128 37 -36 61
-52 71 -48 27 12 79 16 116 10 42 -8 106 -64 124 -107 9 -22 18 -29 34 -27 51
7 3 102 -83 163 -39 27 -50 30 -123 31 -60 0 -83 4 -92 15 -20 27 -105 88
-154 109 -57 25 -169 50 -220 49 -20 -1 -62 -7 -92 -14z"/>
<path d="M1382 6169 c-116 -85 -184 -253 -162 -397 12 -72 45 -155 83 -203
l23 -30 -24 -72 c-90 -268 146 -525 442 -481 l66 10 -6 -47 c-22 -166 164
-282 323 -201 49 26 87 67 80 86 -8 21 -41 20 -58 -1 -21 -25 -90 -53 -132
-53 -50 0 -113 33 -137 73 -36 59 -17 159 36 194 26 17 30 33 13 50 -8 8 -29
3 -77 -20 -110 -52 -268 -47 -361 10 -45 28 -102 87 -124 128 -18 33 -22 57
-22 135 0 113 22 168 93 237 45 44 49 67 15 80 -12 5 -28 -6 -55 -37 -37 -41
-39 -42 -53 -24 -24 32 -54 101 -66 151 -28 126 36 296 141 370 26 18 40 36
40 51 0 31 -27 28 -78 -9z"/>
<path d="M3880 6105 c-10 -13 0 -27 67 -92 215 -209 238 -486 60 -705 -62 -75
-177 -151 -278 -183 -44 -14 -93 -25 -109 -25 -34 0 -45 -16 -53 -83 -17 -127
-137 -257 -270 -293 -102 -27 -246 -12 -319 34 l-32 20 88 86 c57 56 86 92 82
101 -9 26 -40 16 -92 -27 -109 -92 -180 -214 -215 -366 -36 -155 -20 -428 47
-822 40 -231 72 -350 97 -350 31 0 35 21 16 83 -52 171 -129 696 -129 888 0
92 25 228 55 294 l24 56 39 -20 c97 -49 238 -64 347 -36 85 22 149 61 208 125
60 65 93 126 109 203 l12 54 57 11 c31 6 91 26 133 46 222 102 356 299 356
521 0 171 -86 348 -221 455 -57 45 -61 46 -79 25z"/>
<path d="M2416 5966 c-75 -76 -86 -193 -27 -282 23 -33 29 -52 25 -70 -16 -62
28 -121 118 -158 30 -13 38 -13 47 -2 18 21 5 39 -49 68 -53 30 -72 66 -51 99
16 27 14 42 -9 57 -29 18 -60 86 -60 132 0 50 11 73 58 122 30 31 33 40 22 53
-19 23 -36 18 -74 -19z"/>
<path d="M6085 5973 c-45 -10 -133 -49 -185 -81 -126 -79 -237 -235 -275 -387
-20 -79 -20 -291 0 -370 25 -98 91 -219 159 -289 122 -127 256 -186 419 -186
157 0 268 46 391 161 79 74 137 163 173 266 25 72 27 90 27 233 0 143 -2 161
-28 235 -66 191 -224 350 -405 405 -60 19 -217 26 -276 13z m198 -218 c31 -8
74 -26 94 -39 46 -29 123 -109 151 -156 75 -129 74 -353 -4 -485 -30 -52 -118
-137 -168 -164 -271 -142 -575 132 -529 478 18 135 82 243 188 317 89 60 168
75 268 49z"/>
<path d="M4361 5936 c-48 -27 -64 -91 -36 -145 16 -32 59 -51 116 -51 l39 0 0
-420 0 -420 -39 0 c-57 0 -100 -19 -116 -51 -31 -58 -8 -129 46 -148 43 -15
445 -15 488 0 54 19 77 90 46 148 -18 37 -34 43 -125 50 l-75 6 -3 116 -3 116
68 56 68 56 45 -26 c60 -34 124 -96 166 -162 37 -56 167 -311 178 -348 7 -22
11 -23 132 -23 174 0 214 19 214 105 0 72 -42 105 -134 105 l-56 0 -44 94
c-24 52 -65 126 -90 166 -46 71 -154 188 -208 226 l-28 19 190 165 c162 140
197 166 233 172 56 10 87 45 87 99 0 94 -34 109 -248 109 -91 0 -173 -5 -191
-11 -35 -12 -61 -53 -61 -94 0 -30 26 -85 40 -85 26 0 -4 -30 -172 -175 l-183
-156 -3 142 c-1 79 0 149 2 156 4 9 27 13 71 13 38 0 78 6 94 14 71 37 65 159
-10 185 -48 17 -467 14 -498 -3z"/>
<path d="M7055 5941 c-38 -16 -57 -47 -57 -97 0 -37 6 -52 26 -73 25 -24 33
-26 136 -29 61 -2 110 -7 110 -11 0 -4 -57 -149 -126 -322 -70 -173 -144 -357
-164 -409 l-37 -95 -48 -7 c-67 -10 -98 -42 -98 -103 0 -37 5 -52 27 -73 l26
-27 230 0 230 0 27 28 c39 39 40 105 1 144 -23 23 -38 28 -93 31 -36 2 -65 7
-65 10 0 4 10 32 22 64 l23 58 258 0 258 0 18 -42 c39 -91 39 -88 -24 -88 -61
0 -108 -19 -125 -49 -15 -29 -12 -88 6 -116 25 -38 64 -45 271 -45 253 0 283
12 283 109 0 58 -32 91 -94 98 -57 7 -28 -49 -231 453 -79 195 -165 409 -192
475 l-49 120 -265 2 c-145 1 -273 -2 -284 -6z m483 -413 c28 -68 64 -157 81
-198 l30 -75 -161 -3 c-88 -1 -163 0 -166 3 -3 2 29 88 71 190 43 102 77 190
77 195 0 6 4 10 9 10 5 0 31 -55 59 -122z"/>
<path d="M2677 5383 c-27 -26 18 -121 83 -175 l40 -33 -82 -60 c-45 -33 -85
-61 -89 -63 -4 -2 -44 27 -89 63 -82 66 -113 77 -117 40 -2 -14 15 -33 58 -65
33 -25 76 -62 95 -83 21 -22 40 -35 47 -30 7 3 46 32 87 63 111 84 158 113
170 105 17 -10 179 -35 231 -35 l46 0 6 -41 c9 -66 81 -129 147 -129 25 0 30
4 30 24 0 19 -7 25 -34 30 -18 4 -46 18 -61 32 -25 23 -27 31 -23 75 6 64 -3
69 -119 69 -103 0 -165 9 -161 22 2 5 30 25 63 43 47 26 60 38 60 56 0 38 -25
33 -120 -25 -87 -53 -91 -54 -115 -39 -47 29 -79 65 -100 114 -19 45 -37 59
-53 42z"/>
<path d="M1957 5373 c-20 -19 -2 -42 55 -73 56 -29 83 -47 193 -124 l29 -20
-24 -7 c-42 -12 -113 -9 -155 6 -33 12 -42 12 -53 1 -20 -20 -4 -45 36 -56 49
-13 171 -13 211 1 38 13 50 4 134 -96 61 -74 74 -82 95 -61 18 18 24 7 -77
124 l-64 73 36 30 c41 33 103 150 93 174 -11 29 -47 13 -60 -26 -16 -47 -49
-93 -86 -119 l-29 -21 -69 54 c-141 108 -243 163 -265 140z"/>
<path d="M2217 4973 c-16 -16 -3 -40 38 -71 87 -64 154 -167 197 -302 20 -67
23 -94 23 -250 -1 -229 -46 -568 -111 -829 -19 -76 -23 -106 -15 -114 19 -19
44 5 59 54 44 145 98 486 123 776 18 205 -8 381 -74 509 -31 60 -108 154 -157
193 -51 40 -70 48 -83 34z"/>
<path d="M5167 4103 c-4 -3 -7 -14 -7 -24 0 -17 27 -29 68 -29 22 0 22 -2 22
-140 l0 -140 -49 0 c-56 0 -82 -19 -61 -45 10 -12 39 -15 139 -15 133 0 155 6
149 36 -3 16 -14 20 -61 22 l-57 3 0 169 0 170 -68 0 c-38 0 -72 -3 -75 -7z"/>
<path d="M6000 4080 c0 -28 3 -30 35 -30 32 0 35 2 35 30 0 28 -3 30 -35 30
-32 0 -35 -2 -35 -30z"/>
<path d="M7567 4094 c-19 -10 -31 -28 -39 -59 -10 -39 -16 -44 -42 -47 -55 -5
-44 -57 12 -58 21 0 22 -4 22 -80 l0 -80 -35 0 c-39 0 -55 -21 -35 -45 10 -12
37 -15 124 -15 118 0 140 6 134 36 -3 16 -14 20 -66 22 l-62 3 0 79 0 80 58 0
c65 0 85 9 80 36 -3 16 -14 19 -71 22 -57 2 -67 6 -67 21 0 32 25 42 95 40 67
-2 89 8 78 37 -10 27 -140 33 -186 8z"/>
<path d="M5597 4083 c-4 -3 -7 -26 -7 -50 0 -41 -1 -43 -30 -43 -34 0 -49 -22
-30 -45 7 -8 23 -15 36 -15 23 0 24 -2 24 -83 0 -98 12 -121 71 -137 48 -13
137 2 169 28 27 22 17 56 -14 48 -12 -3 -42 -10 -67 -17 -26 -6 -58 -9 -73 -5
-25 6 -26 8 -26 86 l0 80 69 0 c49 0 72 4 81 15 24 29 -5 45 -81 45 -69 0 -69
0 -69 28 0 45 -11 72 -29 72 -10 0 -21 -3 -24 -7z"/>
<path d="M3315 3993 c-65 -18 -105 -76 -105 -152 0 -95 81 -151 198 -137 90
11 142 51 109 84 -12 12 -20 11 -53 -7 -62 -33 -162 -23 -184 19 -35 65 14
140 92 140 34 0 46 -6 74 -36 46 -51 66 -42 62 28 -3 53 -3 53 -38 55 -19 1
-57 4 -85 7 -27 2 -59 2 -70 -1z"/>
<path d="M3670 3978 c-34 -17 -51 -35 -68 -70 -30 -59 -22 -110 23 -155 80
-80 220 -59 269 41 17 35 18 45 7 85 -15 56 -34 78 -86 102 -53 25 -92 24
-145 -3z m129 -53 c32 -16 56 -64 47 -93 -13 -39 -55 -67 -103 -67 -38 0 -49
5 -74 33 -38 42 -37 66 5 108 38 38 77 44 125 19z"/>
<path d="M4093 3985 c-18 -8 -33 -10 -33 -5 0 17 -76 11 -91 -6 -11 -14 -10
-19 9 -34 19 -16 22 -28 22 -93 0 -66 -2 -75 -20 -80 -24 -6 -27 -42 -4 -51
31 -12 111 -6 124 9 16 20 5 45 -20 45 -18 0 -20 6 -20 64 0 60 2 66 29 85 32
23 81 27 99 9 7 -7 12 -41 12 -81 0 -58 -3 -71 -21 -86 -20 -16 -20 -18 -4
-34 16 -17 78 -23 109 -11 23 9 20 45 -4 51 -18 5 -20 14 -20 85 0 90 -14 120
-62 137 -40 14 -66 13 -105 -4z"/>
<path d="M4451 3988 c-19 -7 -43 -25 -54 -40 -18 -24 -18 -30 -7 -58 16 -39
31 -47 116 -60 77 -12 100 -25 83 -46 -27 -33 -125 -28 -159 8 -27 29 -54 20
-58 -21 -4 -43 7 -54 65 -60 129 -13 192 4 211 56 20 58 -16 95 -108 113 -30
6 -66 16 -80 21 -24 10 -24 11 -5 25 33 24 135 10 135 -18 0 -5 10 -8 23 -6
19 3 22 9 22 43 0 36 -3 40 -25 42 -14 1 -47 4 -75 7 -30 4 -64 1 -84 -6z"/>
<path d="M6398 3986 c-17 -9 -30 -10 -36 -4 -5 5 -27 8 -48 6 -31 -2 -40 -7
-42 -25 -2 -14 3 -23 17 -28 19 -6 21 -14 21 -81 0 -70 -1 -75 -25 -84 -28
-11 -34 -44 -9 -54 9 -3 35 -6 59 -6 24 0 50 3 59 6 25 10 19 43 -9 54 -22 9
-25 15 -25 64 0 48 3 57 31 80 31 26 72 33 99 16 9 -6 16 -32 18 -78 4 -63 2
-71 -17 -81 -25 -14 -28 -46 -5 -55 9 -3 31 -6 49 -6 18 0 40 3 49 6 20 7 21
40 2 51 -8 5 -15 36 -19 85 -6 88 -16 112 -57 133 -36 19 -77 19 -112 1z"/>
<path d="M6730 3982 c-101 -50 -107 -200 -11 -256 38 -22 114 -26 149 -7 20
11 22 9 22 -17 0 -43 -27 -62 -91 -62 -62 0 -82 -10 -77 -36 5 -27 119 -33
164 -9 55 29 64 58 64 203 l0 130 26 6 c19 5 25 12 22 29 -3 19 -10 22 -55 25
-33 2 -53 -1 -53 -8 0 -6 -11 -5 -30 5 -38 20 -87 19 -130 -3z m131 -71 c16
-16 29 -39 29 -51 0 -38 -28 -78 -63 -89 -93 -31 -160 81 -86 143 41 35 83 34
120 -3z"/>
<path d="M7892 3990 c-42 -10 -57 -24 -48 -45 5 -14 16 -16 81 -10 77 8 105
-1 105 -31 0 -10 -16 -14 -60 -14 -70 0 -120 -18 -144 -51 -57 -82 40 -161
157 -125 26 8 47 10 47 5 0 -11 80 -12 98 0 21 13 10 46 -16 49 -21 3 -22 8
-22 78 0 95 -16 129 -68 143 -42 12 -82 12 -130 1z m138 -179 c0 -13 -13 -24
-40 -35 -51 -20 -94 -20 -111 0 -23 28 21 54 92 54 51 0 59 -3 59 -19z"/>
<path d="M8383 3975 c-41 -23 -43 -23 -43 -4 0 16 -7 19 -53 19 -29 0 -58 -5
-65 -12 -17 -17 4 -48 33 -48 24 0 25 -2 25 -79 l0 -80 -37 -3 c-28 -2 -39 -8
-41 -22 -6 -30 16 -36 133 -36 117 0 139 6 133 36 -3 16 -14 20 -66 22 l-62 3
0 52 c0 51 1 53 49 85 47 32 51 33 86 21 30 -11 37 -11 45 0 12 20 2 40 -31
56 -39 20 -57 19 -106 -10z"/>
<path d="M8667 3994 c-3 -4 -32 -7 -64 -8 -51 -1 -58 -3 -61 -23 -2 -14 3 -23
17 -28 19 -6 21 -14 21 -85 0 -69 -2 -78 -20 -83 -24 -6 -27 -42 -4 -51 9 -3
31 -6 49 -6 18 0 40 3 49 6 20 8 21 43 1 50 -11 5 -15 24 -15 80 0 64 3 75 21
84 42 23 49 9 49 -110 l0 -110 39 0 c41 0 67 20 57 45 -3 8 -12 15 -21 15 -12
0 -15 14 -15 68 0 72 16 102 53 102 15 0 17 -14 17 -115 l0 -115 34 0 c19 0
41 3 50 6 23 9 20 45 -4 51 -18 5 -20 14 -20 95 0 81 -2 91 -25 113 -27 28
-41 30 -97 13 -29 -9 -41 -9 -50 0 -13 13 -51 16 -61 6z"/>
<path d="M4727 3983 c-16 -15 -6 -43 18 -49 24 -6 25 -9 25 -88 0 -94 12 -118
65 -136 28 -9 45 -9 85 3 27 8 50 11 50 6 0 -15 77 -10 90 6 15 18 6 45 -15
45 -13 0 -15 18 -15 110 l0 111 -57 -3 c-52 -3 -58 -6 -61 -26 -3 -18 2 -23
27 -28 31 -6 31 -7 31 -74 0 -64 -1 -68 -27 -78 -102 -40 -113 -30 -113 104
l0 104 -48 0 c-27 0 -52 -3 -55 -7z"/>
<path d="M5937 3983 c-13 -12 -7 -41 9 -47 9 -3 29 -6 45 -6 l29 0 0 -80 0
-80 -55 0 c-59 0 -79 -16 -55 -45 10 -12 39 -15 140 -15 101 0 130 3 140 15
24 29 4 45 -55 45 l-55 0 0 110 0 110 -68 0 c-38 0 -72 -3 -75 -7z"/>
<path d="M2844 3375 c-11 -28 5 -44 85 -84 86 -44 212 -81 274 -81 34 0 38 2
35 23 -3 19 -14 24 -81 38 -97 21 -183 53 -242 90 -52 33 -63 35 -71 14z"/>
<path d="M2242 3351 c-39 -25 -107 -50 -184 -66 -30 -6 -40 -41 -14 -51 22 -8
145 24 197 53 66 35 86 58 69 78 -16 20 -18 20 -68 -14z"/>
<path d="M2546 3354 c-64 -44 -180 -93 -263 -112 -71 -16 -78 -20 -78 -42 0
-23 3 -25 38 -22 80 7 217 56 297 107 l42 27 32 -31 c37 -35 110 -70 148 -71
22 0 32 8 48 40 24 47 26 76 5 84 -11 4 -22 -6 -36 -29 -12 -19 -29 -35 -39
-35 -26 0 -82 42 -105 77 -25 39 -39 40 -89 7z"/>
</g>
</svg>
