<?xml version="1.0" standalone="no"?>
<!DOCTYPE svg PUBLIC "-//W3C//DTD SVG 20010904//EN"
 "http://www.w3.org/TR/2001/REC-SVG-20010904/DTD/svg10.dtd">
<svg version="1.0" xmlns="http://www.w3.org/2000/svg"
 width="500.000000pt" height="500.000000pt" viewBox="0 0 500.000000 500.000000"
 preserveAspectRatio="xMidYMid meet">
<metadata>
Created by potrace 1.14, written by Peter Selinger 2001-2017
</metadata>
<g transform="translate(0.000000,500.000000) scale(0.100000,-0.100000)"
fill="#000000" stroke="none">
<path d="M2176 4165 c-97 -17 -247 -53 -266 -65 -31 -19 -1 -17 85 6 135 36
289 54 448 53 l142 -2 -125 -12 c-219 -22 -381 -62 -539 -131 -69 -31 -61 -42
10 -13 353 140 777 166 1059 64 540 -196 937 -657 1060 -1230 31 -143 38 -412
16 -560 -20 -130 -52 -250 -94 -357 -21 -55 -26 -78 -17 -78 21 0 85 188 122
360 14 69 18 128 18 310 -1 247 -13 329 -75 522 -128 389 -419 741 -780 942
-84 46 -73 46 32 -3 427 -196 762 -589 892 -1046 45 -161 59 -267 59 -450 1
-232 -33 -411 -114 -614 -17 -43 -26 -78 -21 -83 10 -10 69 137 101 252 233
844 -235 1734 -1065 2024 -102 36 -341 95 -453 111 -119 18 -387 18 -495 0z"/>
<path d="M1715 4080 c-3 -5 -1 -10 4 -10 6 0 11 5 11 10 0 6 -2 10 -4 10 -3 0
-8 -4 -11 -10z"/>
<path d="M1740 4061 c0 -6 -8 -10 -17 -8 -19 2 -23 -3 -23 -29 0 -11 5 -14 16
-10 15 6 15 4 3 -10 -8 -10 -12 -20 -10 -23 2 -3 -10 -14 -28 -24 l-31 -19 -1
31 c-2 51 -3 53 -26 62 -26 9 -25 12 -24 -56 l0 -50 -10 35 c-15 49 -27 58
-37 29 -5 -13 -13 -23 -18 -21 -13 4 -21 -55 -16 -116 5 -53 -22 -162 -40
-162 -4 0 -8 -7 -8 -15 0 -8 -4 -15 -10 -15 -5 0 -10 5 -10 11 0 5 -4 7 -10 4
-5 -3 -10 -2 -10 3 0 6 -7 13 -16 16 -13 5 -15 2 -11 -14 6 -24 -10 -26 -42
-4 -15 11 -21 23 -18 35 6 23 -6 25 -23 4 -10 -12 -16 -13 -27 -3 -12 10 -12
8 -2 -15 15 -33 48 -46 124 -48 39 -2 64 -8 71 -17 16 -21 51 40 66 114 6 33
12 60 13 62 4 5 48 13 84 17 18 1 36 7 40 12 3 5 15 15 26 22 15 9 16 11 3 7
-20 -6 -25 10 -5 17 6 3 3 6 -8 7 -27 2 -68 10 -72 14 -2 1 18 16 45 33 38 24
56 29 95 27 36 -2 47 1 47 12 0 12 -7 14 -31 9 -38 -9 -55 10 -32 34 11 10 12
16 4 19 -6 2 -9 8 -6 12 3 5 1 11 -5 15 -5 3 -10 1 -10 -4z"/>
<path d="M995 3889 c-32 -20 -75 -26 -75 -9 0 6 -7 10 -15 10 -8 0 -15 -2 -15
-4 0 -18 35 -95 61 -134 20 -29 24 -39 11 -27 -12 11 -35 45 -52 75 -25 46
-30 50 -26 25 2 -16 5 -51 5 -77 1 -45 3 -49 41 -68 49 -25 60 -25 60 0 0 25
63 96 103 117 16 8 38 13 48 10 10 -3 20 2 24 10 4 13 -1 15 -27 10 -18 -3
-40 -8 -49 -12 -12 -4 -16 1 -16 23 0 23 -33 75 -45 71 -2 0 -16 -9 -33 -20z"/>
<path d="M865 3870 c3 -5 8 -10 11 -10 2 0 4 5 4 10 0 6 -5 10 -11 10 -5 0 -7
-4 -4 -10z"/>
<path d="M1113 3785 c-3 -9 -3 -18 -1 -21 3 -3 8 4 11 16 6 23 -1 27 -10 5z"/>
<path d="M1312 3778 c0 -7 -3 -23 -6 -35 -6 -28 4 -29 27 -3 9 11 12 20 7 20
-6 0 -10 7 -10 15 0 18 -16 20 -18 3z"/>
<path d="M1227 3730 c-3 -8 -8 -35 -10 -58 -3 -24 -14 -54 -25 -65 -11 -13
-18 -35 -17 -52 0 -16 -5 -38 -13 -47 -18 -22 -5 -24 18 -3 10 9 56 25 104 37
73 18 89 19 96 8 5 -8 6 -18 4 -22 -11 -17 23 -6 51 17 23 19 26 24 13 25 -21
0 -24 20 -6 38 6 6 9 14 6 18 -4 3 -14 -9 -23 -27 -17 -31 -18 -32 -29 -12 -6
11 -17 18 -23 16 -8 -3 -13 4 -13 16 0 25 -11 26 -56 5 -41 -20 -46 -16 -49
33 -3 48 -21 95 -28 73z"/>
<path d="M1030 3539 c19 -18 34 -37 32 -42 -1 -5 2 -6 8 -2 6 4 22 -1 35 -9
14 -9 25 -13 25 -8 0 13 -31 39 -60 51 -14 6 -36 18 -50 27 -16 11 -13 5 10
-17z"/>
<path d="M1440 3528 c-33 -39 -48 -78 -28 -78 22 0 128 62 128 75 0 15 -38 46
-55 44 -5 0 -26 -19 -45 -41z"/>
<path d="M985 3483 c3 -10 8 -31 11 -48 4 -28 3 -27 -15 10 -11 22 -20 33 -20
24 -1 -9 -9 -20 -18 -23 -14 -6 -15 -9 -4 -15 10 -7 10 -9 -2 -14 -11 -4 -15
-19 -14 -51 1 -25 5 -46 9 -46 4 0 5 -7 2 -15 -4 -9 4 -31 17 -49 l23 -34 45
45 c24 25 54 49 65 54 66 31 76 40 66 59 -5 10 -10 27 -10 38 0 26 -32 52 -57
48 -12 -3 -30 4 -42 15 -27 25 -66 26 -56 2z m22 -130 c-3 -10 -5 -4 -5 12 0
17 2 24 5 18 2 -7 2 -21 0 -30z"/>
<path d="M1196 3427 c-29 -38 -32 -49 -13 -41 15 6 51 63 44 70 -3 3 -17 -10
-31 -29z"/>
<path d="M1139 3318 c-13 -25 -56 -68 -67 -68 -4 0 -13 -14 -19 -31 -7 -18
-18 -29 -25 -27 -18 6 -38 -57 -37 -112 1 -25 -10 -83 -24 -130 -54 -179 -62
-239 -62 -475 0 -191 3 -234 23 -328 48 -227 152 -468 279 -647 128 -178 337
-368 525 -476 37 -21 66 -40 64 -42 -8 -8 -194 91 -286 152 -374 249 -629 637
-712 1083 -33 177 -31 432 5 603 29 137 64 250 108 349 17 37 26 68 21 73 -5
5 -24 -26 -44 -74 -134 -315 -169 -652 -103 -983 32 -160 64 -256 134 -401
169 -352 441 -622 794 -789 164 -78 405 -147 625 -180 112 -17 337 -20 327 -5
-4 6 -59 11 -128 11 -123 1 -125 14 -2 19 144 5 94 16 -75 17 -218 0 -331 16
-468 68 -385 144 -713 438 -895 801 -28 55 -35 81 -32 110 4 32 3 34 -3 9 l-7
-30 -22 50 c-68 159 -103 337 -110 555 -6 184 7 308 47 465 19 73 38 127 40
110 0 -5 4 -4 8 3 5 7 29 14 54 16 93 7 217 107 203 164 -4 17 -2 22 6 16 8
-4 9 -3 5 5 -4 6 -11 9 -16 6 -5 -3 -26 1 -46 10 -50 21 -63 19 -74 -10 -5
-14 -16 -25 -24 -25 -7 0 -16 -13 -19 -30 -7 -35 -27 -40 -27 -7 -1 22 -1 22
-15 -3 -18 -31 -19 -41 -2 -34 7 2 13 -3 13 -13 1 -10 4 -26 9 -35 4 -11 3
-18 -5 -18 -6 0 -8 5 -5 10 3 6 0 10 -9 10 -8 0 -17 6 -19 13 -3 6 -8 -3 -12
-20 -11 -47 -29 -42 -21 5 12 64 63 160 116 216 27 29 50 56 50 59 0 17 -30 5
-41 -15z"/>
<path d="M1754 3263 c-25 -61 -92 -305 -113 -416 -64 -334 -45 -577 45 -577
34 0 71 50 173 237 91 166 95 172 115 158 11 -8 29 -15 39 -15 21 0 73 23 104
45 20 15 21 15 17 -2 -6 -23 19 -58 35 -49 6 4 23 26 38 49 l25 40 14 -31 c16
-38 48 -53 87 -40 29 11 87 63 87 79 0 18 -18 9 -53 -26 -56 -56 -91 -44 -105
36 -4 24 -12 44 -17 43 -6 -1 -23 -25 -40 -53 -34 -59 -48 -45 -16 16 28 56
46 69 76 55 21 -10 25 -9 25 3 0 9 -11 20 -25 27 -31 14 -65 -7 -99 -60 -43
-68 -132 -121 -169 -100 -18 9 -24 58 -8 58 22 0 71 53 71 76 0 19 -5 24 -26
24 -34 0 -80 -49 -87 -92 -3 -19 -50 -116 -106 -216 -124 -224 -129 -232 -151
-232 -85 0 -53 434 62 810 52 170 55 190 34 190 -9 0 -23 -16 -32 -37z m263
-480 c-14 -15 -29 -24 -32 -21 -3 3 7 17 21 32 15 14 29 24 32 21 3 -3 -6 -18
-21 -32z"/>
<path d="M2760 3243 c-12 -32 -37 -114 -56 -182 -113 -414 -118 -777 -11 -789
41 -5 69 32 177 231 94 174 94 175 117 160 29 -19 75 -11 125 22 l38 25 0 -29
c0 -57 42 -45 77 22 l16 32 15 -32 c22 -46 56 -58 100 -35 38 20 80 67 69 78
-4 4 -25 -10 -47 -30 -64 -58 -90 -47 -105 47 -3 20 -10 37 -15 37 -5 0 -23
-26 -41 -57 -38 -66 -53 -54 -17 14 29 57 50 73 78 55 17 -10 20 -10 20 3 0
20 -36 38 -61 30 -11 -4 -37 -30 -59 -60 -60 -81 -132 -125 -171 -105 -29 16
-23 46 14 69 34 21 62 65 52 82 -9 13 -47 11 -65 -4 -26 -20 -50 -60 -50 -82
0 -26 -220 -425 -242 -439 -26 -16 -46 9 -58 74 -27 142 39 551 135 829 30 89
30 91 6 91 -15 0 -25 -15 -41 -57z m290 -433 c0 -12 -42 -51 -48 -45 -5 5 37
55 45 55 2 0 3 -4 3 -10z"/>
<path d="M1142 3261 c-12 -17 -18 -32 -14 -35 9 -6 35 21 45 47 10 27 -7 20
-31 -12z"/>
<path d="M1105 3200 c3 -5 8 -10 11 -10 2 0 4 5 4 10 0 6 -5 10 -11 10 -5 0
-7 -4 -4 -10z"/>
<path d="M1314 2165 l-17 -45 -61 -2 -61 -2 57 -3 c50 -4 57 -7 60 -26 2 -18
7 -13 25 24 28 60 38 99 25 99 -6 0 -18 -20 -28 -45z"/>
<path d="M3022 2193 c-6 -12 -9 -29 -5 -39 4 -11 2 -15 -4 -11 -14 9 -56 -158
-47 -185 4 -13 2 -18 -4 -14 -5 3 -13 -10 -17 -30 -9 -52 -1 -52 19 0 20 51
46 80 46 51 0 -10 3 -16 6 -12 4 3 4 14 0 23 -6 15 -8 15 -26 -1 -15 -14 -20
-15 -20 -4 0 28 27 115 49 157 12 24 21 53 19 65 l-3 22 -13 -22z"/>
<path d="M1131 2164 c0 -11 3 -14 6 -6 3 7 2 16 -1 19 -3 4 -6 -2 -5 -13z"/>
<path d="M2841 2155 c-7 -16 -19 -52 -26 -80 -8 -29 -18 -49 -25 -47 -15 3
-50 -26 -50 -42 0 -6 7 0 16 12 8 12 19 22 25 22 15 0 10 -23 -11 -50 -17 -21
-21 -23 -30 -10 -6 9 -10 10 -10 3 0 -21 21 -25 41 -7 18 16 19 16 20 -2 1
-10 5 -1 10 21 5 22 21 68 35 103 14 35 23 73 21 85 -3 20 -5 19 -16 -8z"/>
<path d="M1730 2095 c-15 -74 -7 -82 10 -10 7 30 11 58 7 61 -3 3 -11 -20 -17
-51z"/>
<path d="M1110 2085 c-6 -31 -10 -59 -7 -61 2 -2 9 21 16 52 7 30 11 58 8 61
-3 2 -11 -21 -17 -52z"/>
<path d="M3636 2108 c-8 -18 -17 -48 -21 -65 -4 -21 -13 -33 -23 -33 -11 0
-13 -3 -6 -8 7 -4 14 -16 17 -27 4 -18 5 -18 6 3 1 14 7 22 19 22 13 0 14 2 4
9 -11 7 -10 16 6 47 28 56 35 84 22 84 -6 0 -17 -15 -24 -32z"/>
<path d="M1828 2113 c17 -2 47 -2 65 0 17 2 3 4 -33 4 -36 0 -50 -2 -32 -4z"/>
<path d="M1028 2103 c12 -2 32 -2 45 0 12 2 2 4 -23 4 -25 0 -35 -2 -22 -4z"/>
<path d="M1648 2103 c12 -2 32 -2 45 0 12 2 2 4 -23 4 -25 0 -35 -2 -22 -4z"/>
<path d="M1276 2025 c-4 -21 -2 -44 5 -57 11 -20 11 -22 -3 -10 -14 11 -17 8
-23 -28 -8 -49 0 -66 10 -21 5 26 10 29 24 21 20 -10 84 27 95 56 3 9 -12 0
-34 -20 -40 -36 -77 -42 -46 -7 28 31 16 56 -13 29 -11 -11 -12 -5 -6 30 8 50
0 57 -9 7z m26 -57 c-7 -7 -12 -8 -12 -2 0 6 3 14 7 17 3 4 9 5 12 2 2 -3 -1
-11 -7 -17z"/>
<path d="M1416 2028 c-27 -38 -18 -54 9 -18 28 38 29 40 16 40 -6 0 -17 -10
-25 -22z"/>
<path d="M1886 2028 c-27 -38 -18 -54 9 -18 28 38 29 40 16 40 -6 0 -17 -10
-25 -22z"/>
<path d="M3402 2037 c-6 -6 -13 -26 -16 -42 -5 -23 -4 -25 3 -10 5 12 16 27
25 34 17 15 21 31 7 31 -5 0 -13 -6 -19 -13z"/>
<path d="M1152 2010 c-13 -22 -16 -60 -4 -60 9 0 42 37 42 47 0 3 -10 -2 -21
-13 -21 -19 -21 -19 -18 1 2 11 15 25 29 32 22 11 23 13 5 13 -11 0 -26 -9
-33 -20z"/>
<path d="M1950 1984 c-25 -24 -54 -44 -65 -45 -18 -1 -18 -2 -1 -6 11 -3 30 7
52 28 32 31 34 31 34 11 0 -27 10 -28 33 -2 24 28 21 37 -4 14 -21 -19 -21
-19 -18 1 2 11 15 25 29 32 21 11 22 13 5 12 -11 -1 -40 -21 -65 -45z"/>
<path d="M2117 2023 c-12 -11 -8 -41 10 -77 15 -32 15 -37 0 -60 -18 -27 -22
-56 -8 -56 15 0 34 29 34 55 0 15 16 43 39 70 22 25 38 48 36 50 -3 3 -19 -13
-37 -35 -17 -22 -36 -40 -40 -40 -14 0 -34 58 -28 80 5 21 4 24 -6 13z m26
-153 c-6 -24 -23 -37 -23 -18 0 12 18 38 26 38 1 0 0 -9 -3 -20z"/>
<path d="M2500 2009 c-7 -11 -9 -23 -7 -26 3 -2 8 5 12 16 3 11 14 22 23 24
16 4 16 5 0 6 -10 0 -22 -8 -28 -20z"/>
<path d="M2621 1993 c-17 -59 -12 -72 10 -30 11 21 24 35 29 32 6 -4 10 -1 10
4 0 15 -13 14 -29 -1 -11 -11 -12 -9 -6 10 3 12 4 22 1 22 -3 0 -10 -17 -15
-37z"/>
<path d="M3110 2009 c-7 -11 -9 -23 -7 -26 3 -2 8 5 12 16 3 11 14 22 23 24
16 4 16 5 0 6 -10 0 -22 -8 -28 -20z"/>
<path d="M3801 1987 c-17 -59 -8 -73 14 -21 16 37 17 38 31 20 8 -11 14 -23
14 -28 0 -18 29 -6 45 20 l18 27 -26 -24 -26 -24 -12 27 c-7 15 -18 25 -25 22
-7 -3 -14 3 -16 12 -2 9 -10 -5 -17 -31z"/>
<path d="M1706 1984 c-4 -20 -5 -38 -3 -40 3 -3 8 11 11 32 4 20 5 38 3 40 -3
3 -8 -11 -11 -32z"/>
<path d="M2275 1992 l-19 -26 -7 24 c-7 23 -7 23 -8 3 -1 -29 19 -40 35 -19
12 16 12 16 16 -1 2 -10 0 -22 -4 -28 -4 -5 -18 -23 -31 -40 -25 -31 -57 -88
-57 -102 0 -4 15 17 33 47 18 30 39 54 45 53 7 -2 12 3 12 11 0 8 19 31 43 51
23 21 32 32 20 26 -12 -6 -25 -16 -28 -21 -12 -19 -24 -10 -27 19 l-3 29 -20
-26z"/>
<path d="M3236 2005 c-3 -9 -6 -22 -5 -28 0 -7 5 -1 10 12 5 13 8 26 5 28 -2
2 -6 -3 -10 -12z"/>
<path d="M1092 1990 c0 -14 2 -19 5 -12 2 6 2 18 0 25 -3 6 -5 1 -5 -13z"/>
<path d="M3290 2001 c0 -5 7 -11 14 -14 10 -4 13 -1 9 9 -6 15 -23 19 -23 5z"/>
<path d="M1237 1967 l-17 -32 20 24 c17 20 26 41 18 41 -2 0 -11 -15 -21 -33z"/>
<path d="M1465 1971 c-15 -17 -37 -32 -49 -34 -21 -4 -21 -4 0 -6 11 0 35 14
54 34 19 19 32 35 29 35 -3 0 -18 -13 -34 -29z"/>
<path d="M1663 1974 c-27 -30 -40 -30 -46 -1 l-4 22 -2 -23 c-2 -34 27 -39 57
-9 14 15 24 28 21 31 -2 3 -14 -6 -26 -20z"/>
<path d="M2067 1967 l-17 -32 20 24 c17 20 26 41 18 41 -2 0 -11 -15 -21 -33z"/>
<path d="M2515 1980 c-10 -11 -22 -17 -28 -13 -6 4 -7 1 -3 -6 6 -9 12 -9 25
3 10 9 21 13 24 9 4 -3 7 1 7 10 0 22 -3 21 -25 -3z"/>
<path d="M2600 1994 c0 -6 -9 -20 -20 -32 -12 -12 -17 -22 -12 -22 13 0 45 50
38 58 -3 3 -6 1 -6 -4z"/>
<path d="M2708 1976 c-15 -18 -19 -19 -28 -6 -6 9 -10 10 -10 3 0 -23 22 -25
43 -4 11 11 19 22 16 25 -2 2 -12 -6 -21 -18z"/>
<path d="M3053 1964 c-17 -19 -27 -34 -23 -34 11 0 60 51 60 62 0 11 0 10 -37
-28z"/>
<path d="M3125 1980 c-10 -11 -22 -17 -28 -13 -6 4 -7 1 -3 -6 6 -9 12 -9 25
3 10 9 21 13 24 9 4 -3 7 1 7 10 0 22 -3 21 -25 -3z"/>
<path d="M3210 1994 c0 -6 -9 -20 -20 -32 -12 -12 -17 -22 -12 -22 13 0 45 50
38 58 -3 3 -6 1 -6 -4z"/>
<path d="M3350 1990 c-9 -6 -10 -10 -3 -10 6 0 15 5 18 10 8 12 4 12 -15 0z"/>
<path d="M3444 1969 c-17 -18 -36 -28 -46 -25 -10 2 -18 0 -18 -5 0 -12 27
-12 49 1 16 8 57 60 48 60 -2 0 -16 -14 -33 -31z"/>
<path d="M3677 1987 c-10 -25 1 -39 24 -32 13 4 19 2 19 -9 0 -26 27 -18 49
13 30 42 26 46 -9 9 l-29 -33 -1 28 c0 30 -17 36 -27 10 -6 -15 -8 -14 -13 7
-5 22 -7 23 -13 7z"/>
<path d="M3280 1971 c0 -4 -10 -21 -22 -37 l-23 -28 -6 29 c-7 30 -7 30 -8 3
-2 -39 14 -42 43 -7 24 28 33 49 21 49 -3 0 -5 -4 -5 -9z"/>
<path d="M1190 1961 c0 -6 4 -13 10 -16 6 -3 7 1 4 9 -7 18 -14 21 -14 7z"/>
<path d="M2020 1961 c0 -6 4 -13 10 -16 6 -3 7 1 4 9 -7 18 -14 21 -14 7z"/>
<path d="M1076 1924 c-4 -20 -5 -38 -3 -40 3 -3 8 11 11 32 4 20 5 38 3 40 -3
3 -8 -11 -11 -32z"/>
<path d="M3591 1934 c0 -11 3 -14 6 -6 3 7 2 16 -1 19 -3 4 -6 -2 -5 -13z"/>
<path d="M1692 1910 c0 -14 2 -19 5 -12 2 6 2 18 0 25 -3 6 -5 1 -5 -13z"/>
<path d="M2782 1905 c0 -16 2 -22 5 -12 2 9 2 23 0 30 -3 6 -5 -1 -5 -18z"/>
<path d="M3582 1890 c0 -14 2 -19 5 -12 2 6 2 18 0 25 -3 6 -5 1 -5 -13z"/>
<path d="M2266 1854 c-4 -20 -5 -38 -3 -40 3 -3 8 11 11 32 4 20 5 38 3 40 -3
3 -8 -11 -11 -32z"/>
<path d="M1682 1860 c0 -14 2 -19 5 -12 2 6 2 18 0 25 -3 6 -5 1 -5 -13z"/>
<path d="M2772 1835 c0 -16 2 -22 5 -12 2 9 2 23 0 30 -3 6 -5 -1 -5 -18z"/>
<path d="M3572 1840 c0 -14 2 -19 5 -12 2 6 2 18 0 25 -3 6 -5 1 -5 -13z"/>
<path d="M1673 1795 c0 -22 2 -30 4 -17 2 12 2 30 0 40 -3 9 -5 -1 -4 -23z"/>
<path d="M3562 1790 c0 -14 2 -19 5 -12 2 6 2 18 0 25 -3 6 -5 1 -5 -13z"/>
<path d="M2235 1747 c-12 -30 -26 -51 -34 -49 -7 1 -10 -2 -6 -8 11 -17 32 6
51 56 9 24 15 46 13 48 -2 3 -13 -19 -24 -47z"/>
<path d="M2191 1774 c0 -11 3 -14 6 -6 3 7 2 16 -1 19 -3 4 -6 -2 -5 -13z"/>
<path d="M2181 1724 c0 -11 3 -14 6 -6 3 7 2 16 -1 19 -3 4 -6 -2 -5 -13z"/>
<path d="M3857 1677 c-26 -50 -37 -92 -18 -71 23 26 59 101 53 111 -5 7 -18
-8 -35 -40z"/>
<path d="M3590 1689 c0 -5 -5 -7 -11 -3 -7 4 -10 1 -7 -6 2 -8 10 -16 18 -18
8 -3 10 0 5 8 -6 10 -3 12 10 6 15 -5 16 -4 5 9 -15 18 -20 19 -20 4z"/>
<path d="M3982 1620 c-19 -17 -30 -35 -26 -42 5 -7 3 -8 -6 -3 -7 4 -16 2 -20
-6 -16 -25 0 -28 40 -7 21 12 37 25 34 30 -3 5 0 15 6 23 25 30 3 34 -28 5z"/>
<path d="M3780 1555 c-20 -29 -35 -44 -38 -36 -6 17 -42 54 -48 48 -2 -2 2
-10 11 -17 32 -27 19 -32 -88 -33 -60 -1 -71 1 -86 21 l-17 23 -27 -21 c-32
-25 -33 -34 -9 -80 25 -50 53 -79 68 -73 8 3 14 -1 14 -8 0 -7 3 -9 7 -6 3 4
11 3 17 -2 6 -4 19 -11 30 -15 14 -5 17 -3 12 11 -6 16 -6 16 11 1 22 -20 49
-5 55 31 1 12 19 39 38 60 49 52 93 118 88 132 -2 7 -19 -9 -38 -36z m-50 -65
c0 -5 -5 -10 -11 -10 -5 0 -7 5 -4 10 3 6 8 10 11 10 2 0 4 -4 4 -10z"/>
<path d="M3923 1515 c-11 -8 -26 -28 -33 -44 -8 -21 -17 -28 -28 -24 -9 4 -13
2 -9 -4 4 -6 -10 -30 -31 -54 -63 -73 -56 -89 8 -20 33 36 62 62 66 58 4 -3 2
-13 -4 -20 -9 -11 -6 -13 16 -9 16 2 48 -2 73 -9 70 -20 101 -5 104 49 2 27
-1 30 -26 27 -21 -3 -34 3 -52 25 -14 16 -27 26 -31 23 -3 -3 -12 -1 -19 5
-10 9 -19 8 -34 -3z"/>
<path d="M3546 1291 c-26 -27 -44 -51 -39 -54 5 -4 34 18 63 48 31 32 48 55
39 55 -8 0 -36 -22 -63 -49z"/>
<path d="M3910 1331 c0 -11 -56 -32 -64 -24 -3 4 -6 1 -6 -6 0 -8 6 -11 16 -7
9 3 39 6 67 7 50 1 51 1 24 13 -15 7 -24 15 -21 19 4 4 2 7 -4 7 -7 0 -12 -4
-12 -9z"/>
<path d="M3702 1266 c-29 -30 -52 -60 -52 -67 0 -16 96 70 105 94 13 35 -2 27
-53 -27z"/>
<path d="M3890 1281 c-59 -9 -67 -14 -72 -55 -4 -33 -3 -34 40 -39 24 -3 57
-14 73 -26 24 -18 33 -20 52 -10 28 15 42 37 42 69 0 26 -29 60 -51 60 -7 0
-18 2 -26 4 -7 2 -33 0 -58 -3z"/>
<path d="M3789 1233 c-13 -16 -12 -17 4 -4 16 13 21 21 13 21 -2 0 -10 -8 -17
-17z"/>
<path d="M3558 1147 c-37 -29 -69 -58 -72 -65 -7 -16 1 -12 82 45 l62 44 2
-38 c1 -21 2 -46 2 -55 0 -10 10 -19 25 -23 13 -3 42 -26 63 -49 44 -50 109
-82 137 -66 11 5 31 24 46 42 25 30 26 33 10 45 -10 7 -22 14 -27 15 -5 2 -5
15 1 31 10 26 -2 40 -12 15 -3 -8 -6 -6 -6 5 -1 19 -36 58 -45 50 -3 -4 -6 2
-6 12 0 18 -1 18 -15 -1 -8 -10 -15 -13 -15 -7 0 23 -48 -8 -75 -48 -24 -37
-48 -49 -59 -30 -3 5 1 15 10 22 8 7 25 31 36 53 23 47 13 39 -25 -17 -28 -43
-34 -37 -39 36 -1 20 -5 37 -8 36 -3 0 -35 -24 -72 -52z m272 -17 c16 -11 15
-11 -17 -15 -23 -2 -29 5 -16 18 9 9 15 9 33 -3z"/>
<path d="M3390 1030 c-8 -5 -12 -11 -9 -14 2 -3 11 -1 19 4 8 5 12 11 9 14 -2
3 -11 1 -19 -4z"/>
</g>
</svg>
